<?xml version="1.0" standalone="no"?>
<!DOCTYPE svg PUBLIC "-//W3C//DTD SVG 20010904//EN"
 "http://www.w3.org/TR/2001/REC-SVG-20010904/DTD/svg10.dtd">
<svg version="1.0" xmlns="http://www.w3.org/2000/svg"
 width="382.000000pt" height="366.000000pt" viewBox="0 0 382.000000 366.000000"
 preserveAspectRatio="xMidYMid meet">
<metadata>
Created by potrace 1.16, written by Peter Selinger 2001-2019
</metadata>
<g transform="translate(0.000000,366.000000) scale(0.100000,-0.100000)"
fill="#000000" stroke="none">
<path d="M1730 3650 c-14 -4 -81 -21 -150 -38 -508 -121 -870 -502 -954 -1002
-8 -52 -18 -142 -22 -200 -6 -89 -15 -132 -64 -285 -32 -99 -68 -211 -79 -249
-44 -140 -140 -304 -317 -541 -49 -66 -98 -138 -109 -160 -11 -22 -23 -41 -27
-43 -5 -2 -8 -19 -8 -37 0 -31 4 -36 57 -60 107 -51 252 -44 392 21 30 13 55
23 57 22 1 -2 19 -55 39 -118 106 -328 280 -575 514 -729 l92 -61 -178 -3
-178 -2 191 -3 c187 -2 193 -3 255 -31 79 -36 222 -81 255 -81 13 0 24 -4 24
-10 0 -5 -28 -10 -62 -12 -35 -2 0 -4 77 -4 78 0 164 -6 195 -13 92 -21 570 5
570 31 0 4 11 8 24 8 33 0 176 45 255 81 62 28 68 29 255 31 l191 3 -179 2
-179 3 91 60 c247 163 440 444 527 770 10 36 21 68 25 73 3 4 31 -4 61 -17
140 -65 274 -72 387 -21 50 22 62 32 62 50 0 36 -43 110 -132 230 -231 310
-282 408 -390 750 -75 236 -80 257 -88 380 -15 213 -58 374 -143 540 -130 250
-375 466 -659 578 -80 32 -255 77 -297 77 -16 0 -33 5 -36 10 -7 12 -307 12
-345 0z m-46 -579 c34 -17 90 -56 126 -86 97 -84 100 -83 221 10 38 30 95 66
127 82 50 25 67 28 147 27 268 -3 442 -147 511 -424 26 -105 25 -381 -3 -527
l-19 -103 27 -47 c80 -138 125 -370 115 -593 -13 -300 -101 -527 -268 -692
-203 -200 -534 -302 -875 -269 -591 57 -914 421 -913 1026 1 194 35 357 103
495 l42 85 -18 85 c-24 116 -33 363 -18 470 15 101 58 222 100 284 83 120 186
179 371 210 65 11 164 -3 224 -33z"/>
<path d="M1555 2541 c-49 -12 -83 -40 -106 -87 -51 -106 25 -224 144 -224 73
0 142 59 154 133 17 107 -87 203 -192 178z"/>
<path d="M2177 2536 c-48 -18 -76 -42 -93 -83 -21 -49 -17 -105 9 -144 83
-123 249 -98 287 42 21 76 -29 161 -109 188 -42 14 -47 13 -94 -3z"/>
<path d="M1820 2154 c-41 -24 -110 -57 -153 -72 -86 -30 -85 -26 -34 -111 43
-72 132 -153 212 -192 l65 -32 68 33 c80 40 187 143 220 213 12 26 22 51 22
55 0 5 -19 15 -42 21 -23 7 -94 40 -157 72 -63 32 -117 59 -120 58 -3 -1 -40
-21 -81 -45z"/>
</g>
</svg>
